<svg xmlns="http://www.w3.org/2000/svg" width="500" height="500" viewBox="0 0 500 500"><title>Artboard 1</title><g id="castle"><polygon points="396.52 497.68 244.21 497.68 259.75 282.19 380.98 282.19 396.52 497.68" fill="none" stroke="#324048" stroke-miterlimit="10" stroke-width="10"/><rect x="239.58" y="178.43" width="163.06" height="63.4" fill="none" stroke="#324048" stroke-miterlimit="10" stroke-width="10"/><line x1="259.75" y1="280.95" x2="239.02" y2="243.81" fill="none" stroke="#324048" stroke-miterlimit="10" stroke-width="10"/><line x1="380.98" y1="280.95" x2="403.27" y2="244.07" fill="none" stroke="#324048" stroke-miterlimit="10" stroke-width="10"/><path d="M314,423.37h5.73a24.39,24.39,0,0,1,24.39,24.39v49.91a0,0,0,0,1,0,0H289.61a0,0,0,0,1,0,0V447.76A24.39,24.39,0,0,1,314,423.37Z" fill="none" stroke="#324048" stroke-miterlimit="10" stroke-width="10"/><path d="M279.5,178.55l28.36-76.78c3.3-8.94,11.64-9.09,15.27-.27l31.12,75.7" fill="none" stroke="#324048" stroke-miterlimit="10" stroke-width="10"/><rect x="329.89" y="353.78" width="25.97" height="25.97" fill="#324048"/><rect x="283.89" y="307.78" width="25.97" height="25.97" fill="#324048"/><rect x="259.58" y="174.75" width="25.97" height="18.51" fill="#324048"/><rect x="309.14" y="174.75" width="25.97" height="18.51" fill="#324048"/><rect x="354.58" y="174.75" width="25.97" height="18.51" fill="#324048"/></g></svg>