<svg xmlns="http://www.w3.org/2000/svg" width="500" height="500" viewBox="0 0 500 500"><title>Artboard 1</title><g id="moon"><polygon points="138.77 119.76 137.36 113.9 131.61 112.1 137.47 110.69 139.28 104.94 140.69 110.8 146.44 112.6 140.58 114.01 138.77 119.76" fill="#3d3d3d"/><polygon points="59.25 141.16 58.55 138.22 55.67 137.32 58.6 136.62 59.5 133.74 60.21 136.67 63.08 137.57 60.15 138.28 59.25 141.16" fill="#3d3d3d"/><circle cx="131.61" cy="178.55" r="1.58" fill="#3d3d3d"/><path d="M126.58,147A22.82,22.82,0,0,1,106,114.31a22.8,22.8,0,1,0,23.41,32.53A22.68,22.68,0,0,1,126.58,147Z" fill="none" stroke="#3d3d3d" stroke-miterlimit="10" stroke-width="4"/></g></svg>