<svg xmlns="http://www.w3.org/2000/svg" width="625.38" height="496.88" viewBox="0 0 625.38 496.88"><title>Asset 1</title><g id="Layer_2" data-name="Layer 2"><g id="stars"><polygon points="148.39 14.83 146.98 8.96 141.23 7.16 147.09 5.75 148.9 0 150.31 5.86 156.06 7.67 150.2 9.07 148.39 14.83" fill="#3d3d3d"/><polygon points="514.23 267.53 512.82 261.67 507.07 259.87 512.93 258.46 514.73 252.71 516.14 258.57 521.9 260.37 516.03 261.78 514.23 267.53" fill="#3d3d3d"/><polygon points="437.18 103.79 435.05 94.94 426.37 92.22 435.22 90.09 437.94 81.41 440.06 90.26 448.75 92.98 439.9 95.11 437.18 103.79" fill="#3d3d3d"/><polygon points="25.83 165.53 24.42 159.67 18.67 157.86 24.53 156.45 26.34 150.7 27.75 156.56 33.5 158.37 27.64 159.78 25.83 165.53" fill="#3d3d3d"/><polygon points="7.16 404.29 5.75 398.43 0 396.63 5.86 395.22 7.67 389.47 9.07 395.33 14.83 397.13 8.96 398.54 7.16 404.29" fill="#3d3d3d"/><polygon points="153.16 447.34 152.34 442.73 147.8 441.61 152.6 440.16 154.37 435.47 155.19 440.07 159.73 441.2 154.92 442.64 153.16 447.34" fill="#3d3d3d"/><polygon points="613.27 496.88 611.05 487.62 601.96 484.78 611.22 482.55 614.07 473.46 616.29 482.72 625.38 485.57 616.12 487.8 613.27 496.88" fill="#3d3d3d"/><circle cx="482.57" cy="417.28" r="3.17" fill="#3d3d3d"/><circle cx="556.84" cy="331.29" r="1.58" fill="#3d3d3d"/><circle cx="285.92" cy="111.19" r="3.17" fill="#3d3d3d"/><circle cx="26.34" cy="32.2" r="3.17" fill="#3d3d3d"/><circle cx="18" cy="284.03" r="3.17" fill="#3d3d3d"/><circle cx="53.57" cy="464.86" r="1.58" fill="#3d3d3d"/><circle cx="101.25" cy="350.28" r="1.58" fill="#3d3d3d"/><circle cx="465" cy="173.44" r="1.58" fill="#3d3d3d"/><circle cx="556.84" cy="52.78" r="1.58" fill="#3d3d3d"/><circle cx="418.46" cy="19.86" r="1.58" fill="#3d3d3d"/><circle cx="593.7" cy="213.54" r="1.58" fill="#3d3d3d"/></g></g></svg>